<svg xmlns="http://www.w3.org/2000/svg" viewBox="0 -86 164 96" width="164" height="96" role="img" aria-label="GO">
<defs><linearGradient id="gomark" gradientUnits="userSpaceOnUse" x1="0" y1="-37.1" x2="163.8" y2="-37.1"><stop offset="0" stop-color="#1FC16B"/><stop offset="1" stop-color="#8CC412"/></linearGradient></defs>
<path d="M55.967999999999996 -50.879999999999995Q53.954 -54.589999999999996 50.191 -56.551Q46.428 -58.512 41.339999999999996 -58.512Q32.542 -58.512 27.242 -52.735Q21.942 -46.958 21.942 -37.312Q21.942 -27.029999999999998 27.506999999999998 -21.253Q33.071999999999996 -15.475999999999999 42.824 -15.475999999999999Q49.501999999999995 -15.475999999999999 54.113 -18.868Q58.724 -22.259999999999998 60.844 -28.619999999999997H37.842V-41.976H77.274V-25.122Q75.25999999999999 -18.338 70.437 -12.508000000000001Q65.614 -6.678 58.194 -3.074Q50.774 0.53 41.446 0.53Q30.422 0.53 21.783 -4.293Q13.144 -9.116 8.321 -17.701999999999998Q3.4979999999999998 -26.288 3.4979999999999998 -37.312Q3.4979999999999998 -48.336 8.321 -56.975Q13.144 -65.614 21.73 -70.437Q30.316 -75.25999999999999 41.339999999999996 -75.25999999999999Q54.696 -75.25999999999999 63.864999999999995 -68.794Q73.03399999999999 -62.327999999999996 76.002 -50.879999999999995Z" fill="url(#gomark)"/>
<circle cx="121.77" cy="-37.10" r="30.5" fill="none" stroke="url(#gomark)" stroke-width="17"/>
</svg>