<svg xmlns="http://www.w3.org/2000/svg" viewBox="0 -80 701 105" width="701" height="105" role="img" aria-label="Green Oaisys">
<path d="M52.800000000000004 -48.0Q50.900000000000006 -51.5 47.35000000000001 -53.35Q43.800000000000004 -55.2 39.0 -55.2Q30.700000000000003 -55.2 25.700000000000003 -49.75Q20.700000000000003 -44.300000000000004 20.700000000000003 -35.2Q20.700000000000003 -25.5 25.950000000000003 -20.05Q31.200000000000003 -14.600000000000001 40.400000000000006 -14.600000000000001Q46.7 -14.600000000000001 51.050000000000004 -17.8Q55.400000000000006 -21.0 57.400000000000006 -27.0H35.7V-39.6H72.9V-23.700000000000003Q71.0 -17.3 66.45 -11.8Q61.900000000000006 -6.300000000000001 54.900000000000006 -2.9000000000000004Q47.900000000000006 0.5 39.1 0.5Q28.700000000000003 0.5 20.55 -4.05Q12.4 -8.6 7.8500000000000005 -16.7Q3.3000000000000003 -24.8 3.3000000000000003 -35.2Q3.3000000000000003 -45.6 7.8500000000000005 -53.75Q12.4 -61.900000000000006 20.5 -66.45Q28.6 -71.0 39.0 -71.0Q51.6 -71.0 60.25 -64.9Q68.9 -58.800000000000004 71.7 -48.0Z" fill="#1FC16B"/>
<path d="M117.0 -56.400000000000006V-38.300000000000004H112.30000000000001Q105.9 -38.300000000000004 102.7 -35.550000000000004Q99.5 -32.800000000000004 99.5 -25.900000000000002V0.0H82.4V-55.800000000000004H99.5V-46.5Q102.5 -51.1 107.0 -53.75Q111.5 -56.400000000000006 117.0 -56.400000000000006Z" fill="#1FC16B"/>
<path d="M177.5 -23.8H138.8Q139.2 -18.6 142.14999999999998 -15.850000000000001Q145.1 -13.100000000000001 149.4 -13.100000000000001Q155.8 -13.100000000000001 158.3 -18.5H176.5Q175.1 -13.0 171.45 -8.6Q167.8 -4.2 162.3 -1.7000000000000002Q156.8 0.8 150.0 0.8Q141.8 0.8 135.4 -2.7Q129.0 -6.2 125.4 -12.700000000000001Q121.8 -19.200000000000003 121.8 -27.900000000000002Q121.8 -36.6 125.35 -43.1Q128.9 -49.6 135.3 -53.1Q141.7 -56.6 150.0 -56.6Q158.1 -56.6 164.39999999999998 -53.2Q170.7 -49.800000000000004 174.25 -43.5Q177.8 -37.2 177.8 -28.8Q177.8 -26.400000000000002 177.5 -23.8ZM160.3 -33.300000000000004Q160.3 -37.7 157.3 -40.300000000000004Q154.3 -42.900000000000006 149.8 -42.900000000000006Q145.5 -42.900000000000006 142.55 -40.400000000000006Q139.6 -37.9 138.9 -33.300000000000004Z" fill="#1FC16B"/>
<path d="M239.1 -23.8H200.4Q200.8 -18.6 203.75 -15.850000000000001Q206.7 -13.100000000000001 211.0 -13.100000000000001Q217.4 -13.100000000000001 219.9 -18.5H238.1Q236.7 -13.0 233.05 -8.6Q229.4 -4.2 223.9 -1.7000000000000002Q218.4 0.8 211.6 0.8Q203.4 0.8 197.0 -2.7Q190.6 -6.2 187.0 -12.700000000000001Q183.4 -19.200000000000003 183.4 -27.900000000000002Q183.4 -36.6 186.95 -43.1Q190.5 -49.6 196.9 -53.1Q203.3 -56.6 211.6 -56.6Q219.7 -56.6 226.0 -53.2Q232.3 -49.800000000000004 235.85000000000002 -43.5Q239.4 -37.2 239.4 -28.8Q239.4 -26.400000000000002 239.1 -23.8ZM221.9 -33.300000000000004Q221.9 -37.7 218.9 -40.300000000000004Q215.9 -42.900000000000006 211.4 -42.900000000000006Q207.1 -42.900000000000006 204.14999999999998 -40.400000000000006Q201.2 -37.9 200.5 -33.300000000000004Z" fill="#1FC16B"/>
<path d="M303.9 -32.6V0.0H286.9V-30.3Q286.9 -35.9 284.0 -39.0Q281.1 -42.1 276.2 -42.1Q271.3 -42.1 268.4 -39.0Q265.5 -35.9 265.5 -30.3V0.0H248.39999999999998V-55.800000000000004H265.5V-48.400000000000006Q268.09999999999997 -52.1 272.5 -54.25Q276.9 -56.400000000000006 282.4 -56.400000000000006Q292.2 -56.400000000000006 298.04999999999995 -50.050000000000004Q303.9 -43.7 303.9 -32.6Z" fill="#1FC16B"/>
<defs><linearGradient id="oai" gradientUnits="userSpaceOnUse" x1="342.4" y1="-35.0" x2="515.6" y2="-35.0"><stop offset="0" stop-color="#1FC16B"/><stop offset="1" stop-color="#8CC412"/></linearGradient></defs>
<circle cx="378.90" cy="-35.0" r="28.54" fill="none" stroke="url(#oai)" stroke-width="15.91"/>
<path d="M445.6 -56.6Q451.50000000000006 -56.6 455.95000000000005 -54.2Q460.40000000000003 -51.800000000000004 462.80000000000007 -47.900000000000006V-55.800000000000004H479.90000000000003V0.0H462.80000000000007V-7.9Q460.30000000000007 -4.0 455.85 -1.6Q451.40000000000003 0.8 445.50000000000006 0.8Q438.70000000000005 0.8 433.1 -2.7500000000000004Q427.50000000000006 -6.300000000000001 424.25000000000006 -12.850000000000001Q421.00000000000006 -19.400000000000002 421.00000000000006 -28.0Q421.00000000000006 -36.6 424.25000000000006 -43.1Q427.50000000000006 -49.6 433.1 -53.1Q438.70000000000005 -56.6 445.6 -56.6ZM450.6 -41.7Q445.50000000000006 -41.7 441.95000000000005 -38.05Q438.40000000000003 -34.4 438.40000000000003 -28.0Q438.40000000000003 -21.6 441.95000000000005 -17.85Q445.50000000000006 -14.100000000000001 450.6 -14.100000000000001Q455.70000000000005 -14.100000000000001 459.25000000000006 -17.8Q462.80000000000007 -21.5 462.80000000000007 -27.900000000000002Q462.80000000000007 -34.300000000000004 459.25000000000006 -38.0Q455.70000000000005 -41.7 450.6 -41.7Z" fill="url(#oai)"/>
<path d="M490.70000000000005 -70.8Q490.70000000000005 -74.8 493.55000000000007 -77.45Q496.40000000000003 -80.10000000000001 500.90000000000003 -80.10000000000001Q505.3 -80.10000000000001 508.15 -77.45Q511.0 -74.8 511.0 -70.8Q511.0 -66.9 508.15 -64.25Q505.3 -61.6 500.90000000000003 -61.6Q496.40000000000003 -61.6 493.55000000000007 -64.25Q490.70000000000005 -66.9 490.70000000000005 -70.8ZM509.40000000000003 -55.800000000000004V0.0H492.3V-55.800000000000004Z" fill="url(#oai)"/>
<path d="M519.8000000000001 -15.8Q519.8000000000001 -16.5 520.0 -18.3H536.5Q536.3000000000001 -15.200000000000001 538.35 -13.350000000000001Q540.4 -11.5 544.2 -11.5Q547.4 -11.5 549.5 -12.7Q551.6 -13.9 551.6 -16.1Q551.6 -18.2 549.35 -19.450000000000003Q547.1 -20.700000000000003 541.9 -22.5Q536.5 -24.3 532.85 -26.05Q529.2 -27.8 526.6 -31.1Q524.0 -34.4 524.0 -39.400000000000006Q524.0 -44.300000000000004 526.9000000000001 -48.25Q529.8000000000001 -52.2 535.0500000000001 -54.400000000000006Q540.3000000000001 -56.6 547.2 -56.6Q554.1 -56.6 559.2 -54.35Q564.3000000000001 -52.1 567.1 -48.1Q569.9 -44.1 569.9 -39.1L569.8000000000001 -37.6H554.3000000000001Q554.5 -40.6 552.5 -42.400000000000006Q550.5 -44.2 546.8000000000001 -44.2Q543.9 -44.2 542.05 -43.0Q540.2 -41.800000000000004 540.2 -39.7Q540.2 -37.5 542.6500000000001 -36.05Q545.1 -34.6 550.3000000000001 -32.800000000000004Q555.7 -31.0 559.25 -29.25Q562.8000000000001 -27.5 565.35 -24.35Q567.9 -21.200000000000003 567.9 -16.5Q567.9 -11.100000000000001 564.65 -7.200000000000001Q561.4 -3.3000000000000003 555.75 -1.25Q550.1 0.8 542.9 0.8Q536.3000000000001 0.8 531.0500000000001 -1.3000000000000003Q525.8000000000001 -3.4000000000000004 522.8000000000001 -7.15Q519.8000000000001 -10.9 519.8000000000001 -15.8Z" fill="#6C4BF4"/>
<path d="M598.1 -55.800000000000004 604.9 -20.900000000000002 623.9 -55.800000000000004H642.4L592.9 26.5H574.5L592.3 -1.9000000000000001L579.1 -55.800000000000004Z" fill="#6C4BF4"/>
<path d="M638.8000000000001 -15.8Q638.8000000000001 -16.5 639.0 -18.3H655.5Q655.3000000000001 -15.200000000000001 657.35 -13.350000000000001Q659.4 -11.5 663.2 -11.5Q666.4 -11.5 668.5 -12.7Q670.6 -13.9 670.6 -16.1Q670.6 -18.2 668.35 -19.450000000000003Q666.1 -20.700000000000003 660.9 -22.5Q655.5 -24.3 651.85 -26.05Q648.2 -27.8 645.6 -31.1Q643.0 -34.4 643.0 -39.400000000000006Q643.0 -44.300000000000004 645.9000000000001 -48.25Q648.8000000000001 -52.2 654.0500000000001 -54.400000000000006Q659.3000000000001 -56.6 666.2 -56.6Q673.1 -56.6 678.2 -54.35Q683.3000000000001 -52.1 686.1 -48.1Q688.9 -44.1 688.9 -39.1L688.8000000000001 -37.6H673.3000000000001Q673.5 -40.6 671.5 -42.400000000000006Q669.5 -44.2 665.8000000000001 -44.2Q662.9 -44.2 661.05 -43.0Q659.2 -41.800000000000004 659.2 -39.7Q659.2 -37.5 661.6500000000001 -36.05Q664.1 -34.6 669.3000000000001 -32.800000000000004Q674.7 -31.0 678.25 -29.25Q681.8000000000001 -27.5 684.35 -24.35Q686.9 -21.200000000000003 686.9 -16.5Q686.9 -11.100000000000001 683.65 -7.200000000000001Q680.4 -3.3000000000000003 674.75 -1.25Q669.1 0.8 661.9 0.8Q655.3000000000001 0.8 650.0500000000001 -1.3000000000000003Q644.8000000000001 -3.4000000000000004 641.8000000000001 -7.15Q638.8000000000001 -10.9 638.8000000000001 -15.8Z" fill="#6C4BF4"/>
</svg>