<svg xmlns="http://www.w3.org/2000/svg" viewBox="0 -80 362 105" width="362" height="105" role="img" aria-label="Oaisys">
<defs><linearGradient id="oai" gradientUnits="userSpaceOnUse" x1="2.8" y1="-35.0" x2="176.0" y2="-35.0"><stop offset="0" stop-color="#1FC16B"/><stop offset="1" stop-color="#8CC412"/></linearGradient></defs>
<circle cx="39.30" cy="-35.0" r="28.54" fill="none" stroke="url(#oai)" stroke-width="15.91"/>
<path d="M106.0 -56.6Q111.9 -56.6 116.35 -54.2Q120.8 -51.800000000000004 123.19999999999999 -47.900000000000006V-55.800000000000004H140.3V0.0H123.19999999999999V-7.9Q120.69999999999999 -4.0 116.25 -1.6Q111.8 0.8 105.89999999999999 0.8Q99.1 0.8 93.5 -2.7500000000000004Q87.89999999999999 -6.300000000000001 84.64999999999999 -12.850000000000001Q81.39999999999999 -19.400000000000002 81.39999999999999 -28.0Q81.39999999999999 -36.6 84.64999999999999 -43.1Q87.89999999999999 -49.6 93.5 -53.1Q99.1 -56.6 106.0 -56.6ZM111.0 -41.7Q105.89999999999999 -41.7 102.35 -38.05Q98.8 -34.4 98.8 -28.0Q98.8 -21.6 102.35 -17.85Q105.89999999999999 -14.100000000000001 111.0 -14.100000000000001Q116.1 -14.100000000000001 119.64999999999999 -17.8Q123.19999999999999 -21.5 123.19999999999999 -27.900000000000002Q123.19999999999999 -34.300000000000004 119.64999999999999 -38.0Q116.1 -41.7 111.0 -41.7Z" fill="url(#oai)"/>
<path d="M151.1 -70.8Q151.1 -74.8 153.95 -77.45Q156.8 -80.10000000000001 161.3 -80.10000000000001Q165.7 -80.10000000000001 168.55 -77.45Q171.4 -74.8 171.4 -70.8Q171.4 -66.9 168.55 -64.25Q165.7 -61.6 161.3 -61.6Q156.8 -61.6 153.95 -64.25Q151.1 -66.9 151.1 -70.8ZM169.8 -55.800000000000004V0.0H152.7V-55.800000000000004Z" fill="url(#oai)"/>
<path d="M180.2 -15.8Q180.2 -16.5 180.4 -18.3H196.9Q196.7 -15.200000000000001 198.75 -13.350000000000001Q200.8 -11.5 204.6 -11.5Q207.8 -11.5 209.9 -12.7Q212.0 -13.9 212.0 -16.1Q212.0 -18.2 209.75 -19.450000000000003Q207.5 -20.700000000000003 202.3 -22.5Q196.9 -24.3 193.25 -26.05Q189.6 -27.8 187.0 -31.1Q184.4 -34.4 184.4 -39.400000000000006Q184.4 -44.300000000000004 187.3 -48.25Q190.2 -52.2 195.45 -54.400000000000006Q200.7 -56.6 207.6 -56.6Q214.5 -56.6 219.6 -54.35Q224.7 -52.1 227.5 -48.1Q230.3 -44.1 230.3 -39.1L230.2 -37.6H214.7Q214.9 -40.6 212.9 -42.400000000000006Q210.9 -44.2 207.2 -44.2Q204.3 -44.2 202.45 -43.0Q200.6 -41.800000000000004 200.6 -39.7Q200.6 -37.5 203.05 -36.05Q205.5 -34.6 210.7 -32.800000000000004Q216.1 -31.0 219.64999999999998 -29.25Q223.2 -27.5 225.75 -24.35Q228.3 -21.200000000000003 228.3 -16.5Q228.3 -11.100000000000001 225.05 -7.200000000000001Q221.8 -3.3000000000000003 216.15 -1.25Q210.5 0.8 203.3 0.8Q196.7 0.8 191.45 -1.3000000000000003Q186.2 -3.4000000000000004 183.2 -7.15Q180.2 -10.9 180.2 -15.8Z" fill="#6C4BF4"/>
<path d="M258.5 -55.800000000000004 265.3 -20.900000000000002 284.3 -55.800000000000004H302.8L253.3 26.5H234.9L252.70000000000002 -1.9000000000000001L239.5 -55.800000000000004Z" fill="#6C4BF4"/>
<path d="M299.2 -15.8Q299.2 -16.5 299.4 -18.3H315.9Q315.7 -15.200000000000001 317.75 -13.350000000000001Q319.8 -11.5 323.6 -11.5Q326.8 -11.5 328.9 -12.7Q331.0 -13.9 331.0 -16.1Q331.0 -18.2 328.75 -19.450000000000003Q326.5 -20.700000000000003 321.3 -22.5Q315.9 -24.3 312.25 -26.05Q308.6 -27.8 306.0 -31.1Q303.4 -34.4 303.4 -39.400000000000006Q303.4 -44.300000000000004 306.29999999999995 -48.25Q309.2 -52.2 314.45 -54.400000000000006Q319.7 -56.6 326.6 -56.6Q333.5 -56.6 338.6 -54.35Q343.7 -52.1 346.5 -48.1Q349.3 -44.1 349.3 -39.1L349.2 -37.6H333.7Q333.9 -40.6 331.9 -42.400000000000006Q329.9 -44.2 326.2 -44.2Q323.3 -44.2 321.45000000000005 -43.0Q319.6 -41.800000000000004 319.6 -39.7Q319.6 -37.5 322.05 -36.05Q324.5 -34.6 329.7 -32.800000000000004Q335.1 -31.0 338.65 -29.25Q342.2 -27.5 344.75 -24.35Q347.3 -21.200000000000003 347.3 -16.5Q347.3 -11.100000000000001 344.05 -7.200000000000001Q340.8 -3.3000000000000003 335.15 -1.25Q329.5 0.8 322.3 0.8Q315.7 0.8 310.45 -1.3000000000000003Q305.2 -3.4000000000000004 302.2 -7.15Q299.2 -10.9 299.2 -15.8Z" fill="#6C4BF4"/>
</svg>